<?xml version="1.0" encoding="utf-8"?>
<!-- Generator: Adobe Illustrator 22.0.1, SVG Export Plug-In . SVG Version: 6.00 Build 0)  -->
<svg version="1.1" id="DLS_x5F_PbasPatientFlow" xmlns="http://www.w3.org/2000/svg" xmlns:xlink="http://www.w3.org/1999/xlink"
	 x="0px" y="0px" viewBox="0 0 48 48" style="enable-background:new 0 0 48 48;" xml:space="preserve">
<path d="M16,20c4.97,0,9-4.03,9-9c0-4.97-4.03-9-9-9s-9,4.03-9,9C7,15.97,11.03,20,16,20z M5.23,37.98C5.56,37.99,5.93,38,6.28,38
	c6.91,0,9.25-2.75,11.6-6.34c1.95-2.99,4.65-7.08,10.37-9.23c-1.17-1.44-2.85-2.45-4.76-2.76c-1.95,1.85-4.58,3-7.48,3
	s-5.53-1.15-7.48-3C4.82,20.27,2,23.47,2,27.33v11.64c0.83-0.62,1.84-1,2.95-1C5.04,37.97,5.13,37.98,5.23,37.98z M46,26l-10-7v4
	c-10.12,0.34-13.62,5.44-16.44,9.75c-2.87,4.39-5.94,7.55-14.44,7.23C3.45,39.88,2.06,41.2,2,42.86c-0.06,1.66,1.23,3.05,2.88,3.11
	c11.89,0.46,16.67-5.3,19.7-9.94C27.12,32.15,29.16,29.27,36,29v4L46,26z"/>
</svg>
