<svg version="1" xmlns="http://www.w3.org/2000/svg" width="933.333" height="933.333" viewBox="0 0 700.000000 700.000000"><path d="M200.5 1.5C141.7 9.7 95.9 55.4 88 113.7c-1.6 11.5-.8 34.8 1.5 45.3 11.1 50.6 50.9 90.4 101.5 101.5 10.5 2.3 33.8 3.1 45.3 1.5 11.2-1.5 26.6-6 36.5-10.5C315.4 231.8 343.4 193 349 146c4.5-38.1-8.9-77.3-36.3-105.6-29.1-30.2-70.9-44.7-112.2-38.9z"/><path d="M33.8 271.2C17.4 287.6 8.2 304.4 2.4 329 .7 335.9.6 345.2.3 452.8L-.1 569h62.5c49.8 0 64.8-.3 73.9-1.5 23.6-3.1 39.5-9.8 52.5-22 10.5-10 16.4-18.3 38.1-53.6 41.6-67.8 65.2-98.1 95.2-122.2 27.9-22.5 63.2-39.8 100.7-49.3 3.9-1 7.2-2.1 7.2-2.6 0-1.4-6-15.8-9.6-23.1-5-10-11-18-19.2-26l-7-6.7h-44.5l-6.6 4.8c-25.7 18.8-59.7 31.8-95.1 36.3-13.5 1.7-49 1.4-62.4-.5-34.9-5.1-65.9-17.2-91.8-36.1l-6.2-4.5H43.1l-9.3 9.2z"/><path d="M525 305.9v43.8l-13.7.7c-67.2 3.4-118.9 19.4-158.1 49.1-13.2 10-32.5 30-44.9 46.5-12.6 16.9-31.1 45-48.3 73.5-16.5 27.3-21.1 34.2-30.6 45.5-20.9 24.9-45.9 38-84.9 44.6-8.5 1.5-20 1.8-77.2 2.1l-67.3.4V700h66.8c51.4 0 70.1-.3 81.7-1.5 49.6-4.9 86.3-17.4 119.5-40.9 12.4-8.8 37.6-34.4 48.3-49.3 4.8-6.7 19.6-29.2 32.9-50 28.2-44.4 38.4-59.4 48.5-71.4 25.6-30.5 59.5-44.5 117.5-48.4l9.8-.7.2 43.7.3 43.7 87.3-65.7c47.9-36.1 87.2-65.9 87.2-66.3-.1-.4-23.3-18-51.7-39.2-28.4-21.2-67.8-50.5-87.5-65.2L525 262v43.9z"/></svg>