<svg version="1" xmlns="http://www.w3.org/2000/svg" width="933.333" height="933.333" viewBox="0 0 700.000000 700.000000"><path d="M304 159v39h-30l-.2-24.3-.3-24.2-40.5-.3c-34.3-.2-41.2 0-45.8 1.4-9.9 2.8-17.8 9.6-22.9 19.4l-2.8 5.5-.3 48.7-.3 48.8H194v-17h378v289H194V361h-33l.2 95.2.3 95.3 2.7 5.5c3.5 7.1 10.7 14.3 17.8 17.8l5.5 2.7h391l6.7-3.3c10.6-5.2 17.6-14.4 19.8-26.1 1.4-7.3 1.4-361.8 0-369.1-2.1-11.1-10.2-21.5-20.9-26.7l-5.6-2.8-26.7-.3-26.8-.3V120l-16.2.2-16.3.3-.3 38.7-.2 38.8h-30v-49H336v-29h-32v39z"/><path d="M47.3 265.8c1.5 25.7 8.3 43 22.6 57.2 8.6 8.6 17.6 13.6 30.6 17.2 7.8 2.2 9.6 2.2 72.2 2.6l64.2.3.3 12.9.3 12.9 26.5-23.5c14.6-13 27.8-24.8 29.4-26.3l2.8-2.9-29.3-25.7-29.4-25.7-.3 12.6-.3 12.7-66.2-.4c-75.8-.4-73.7-.1-93.5-9.7-10.7-5.3-21.8-14.4-26.3-21.6-3.6-5.8-4.3-4.4-3.6 7.4zM310 315v28h57v-56h-57v28zM394.2 315.2l.3 28.3 28.3.3 28.2.2v-57h-57l.2 28.2zM478.7 287.7c-.4.3-.7 12.9-.7 28V343h57v-56h-27.8c-15.3 0-28.2.3-28.5.7zM310 399.5V428h57v-57h-57v28.5zM395 399.5V428h56l-.2-28.3-.3-28.2-27.7-.3-27.8-.2v28.5zM478.5 372.2c-.3.8-.4 13.5-.3 28.3l.3 27 28.3.3 28.2.2-.2-28.2-.3-28.3-27.8-.3c-21.8-.2-27.9 0-28.2 1zM478.7 455.7c-.4.3-.7 13.2-.7 28.5V512h57l-.2-28.3-.3-28.2-27.6-.3c-15.1-.1-27.8.1-28.2.5zM310 484v28h57l-.2-27.8-.3-27.7-28.2-.3-28.3-.2v28zM395 484v28h56v-56h-56v28z"/></svg>