<?xml version="1.0" standalone="no"?>
<!DOCTYPE svg PUBLIC "-//W3C//DTD SVG 20010904//EN"
 "http://www.w3.org/TR/2001/REC-SVG-20010904/DTD/svg10.dtd">
<svg version="1.0" xmlns="http://www.w3.org/2000/svg"
 width="920.000000pt" height="920.000000pt" viewBox="0 0 920.000000 920.000000"
 preserveAspectRatio="xMidYMid meet">
<metadata>
Created by potrace 1.11, written by Peter Selinger 2001-2013
</metadata>
<g transform="translate(0.000000,920.000000) scale(0.100000,-0.100000)"
fill="#000000" stroke="none">
<path d="M1113 7775 c-91 -46 -159 -138 -199 -271 -18 -56 -19 -188 -21 -2869
-4 -3077 -7 -2907 55 -3039 74 -158 203 -226 343 -182 24 8 145 51 269 96 124
45 268 97 320 115 52 18 185 66 295 105 110 40 261 94 335 120 74 27 306 110
515 185 209 75 479 172 600 215 434 155 497 180 565 225 108 72 201 188 252
314 23 56 23 60 23 521 l0 465 -170 0 -170 0 -3 -48 c-3 -41 -6 -48 -20 -42
-9 3 -73 25 -142 47 -69 22 -258 89 -420 148 -162 60 -307 111 -322 115 l-28
7 0 140 c0 121 3 144 19 166 56 80 129 268 171 442 19 78 30 103 61 138 46 53
54 85 75 322 19 218 16 257 -22 307 l-29 38 -1 165 c-1 143 -5 178 -28 264
-62 239 -212 453 -417 599 -87 62 -237 132 -335 157 -94 24 -262 27 -344 5
-219 -58 -384 -244 -451 -508 -17 -67 -22 -123 -26 -301 l-5 -219 -33 -43
c-57 -75 -59 -109 -25 -411 32 -273 41 -313 89 -373 18 -23 32 -57 40 -100 48
-252 108 -437 181 -551 30 -45 30 -47 30 -195 l0 -149 -87 -62 c-49 -34 -171
-129 -272 -210 -101 -81 -263 -212 -360 -290 l-176 -142 -3 2012 c-1 1107 0
2027 3 2044 9 48 29 54 110 33 39 -10 185 -49 325 -85 140 -36 350 -91 465
-121 116 -31 293 -77 395 -104 102 -27 300 -78 440 -115 140 -36 338 -88 440
-115 102 -27 291 -76 420 -110 193 -50 239 -66 258 -86 l22 -25 0 -650 0 -649
175 0 175 0 0 618 c0 685 0 681 -66 799 -82 147 -203 241 -389 302 -119 39
-787 249 -960 301 -49 15 -187 58 -305 95 -118 37 -298 93 -400 125 -102 31
-288 90 -415 129 -758 238 -730 231 -822 186z"/>
<path d="M7700 7725 c-129 -40 -332 -103 -450 -140 -118 -37 -298 -94 -400
-125 -102 -32 -282 -88 -400 -125 -118 -37 -255 -80 -305 -95 -173 -52 -841
-262 -960 -301 -186 -61 -307 -155 -390 -303 -63 -113 -66 -136 -63 -582 l3
-399 170 0 170 0 5 437 c5 421 6 438 25 457 13 13 99 40 255 81 129 34 318 83
420 110 102 27 300 79 440 115 140 37 338 88 440 115 102 27 280 73 395 104
116 30 325 85 465 121 140 36 286 75 324 85 78 20 93 18 107 -17 10 -27 13
-4063 3 -4063 -4 0 -84 62 -178 138 -94 75 -255 205 -359 288 -103 83 -226
178 -272 210 l-84 59 -1 151 c0 137 2 154 20 177 29 37 94 171 118 247 12 36
37 139 56 228 23 109 41 171 53 185 33 38 50 70 61 122 20 88 64 508 58 553
-6 46 -28 96 -57 127 -15 17 -18 41 -20 175 -4 280 -23 389 -99 545 -80 166
-192 271 -358 333 -58 22 -83 25 -187 26 -136 0 -196 -13 -335 -73 -163 -70
-332 -204 -439 -350 -70 -95 -138 -237 -168 -349 -20 -80 -26 -128 -30 -272
-4 -148 -8 -178 -23 -195 -46 -53 -49 -93 -25 -355 19 -203 25 -228 75 -285
22 -26 40 -52 40 -59 0 -27 71 -271 100 -344 17 -42 49 -107 71 -144 l40 -67
-3 -131 -3 -131 -245 -90 c-272 -100 -647 -229 -667 -229 -10 0 -13 56 -13
260 l0 260 -175 0 -176 0 3 -682 3 -683 23 -56 c51 -126 144 -242 252 -314 68
-45 131 -70 565 -225 121 -43 391 -140 600 -215 209 -75 441 -158 515 -185 74
-26 225 -80 335 -120 110 -39 243 -87 295 -105 52 -18 196 -70 320 -115 124
-45 245 -88 269 -96 140 -44 269 24 343 182 62 132 59 -38 55 3039 -2 2681 -3
2813 -21 2869 -40 133 -108 225 -199 271 -79 39 -119 34 -387 -50z"/>
<path d="M4730 5455 l-105 -105 140 -140 140 -140 -663 0 -662 0 0 -150 0
-150 1025 0 c564 0 1025 1 1025 3 0 5 -780 782 -788 785 -4 1 -54 -45 -112
-103z"/>
<path d="M3580 4673 c0 -5 179 -187 398 -406 l397 -397 110 110 110 110 -140
140 -140 140 663 0 663 0 -3 153 -3 152 -1027 3 c-566 1 -1028 -1 -1028 -5z"/>
</g>
</svg>
