<svg version="1" xmlns="http://www.w3.org/2000/svg" width="1226.667" height="1226.667" viewBox="0 0 920.000000 920.000000"><path d="M389.2 220l.3 49H351v-62.1l-53.7.3-53.8.3-8 3.9c-10 4.9-17.9 12.7-22.6 22.3l-3.4 6.8-.3 61.7-.2 61.8 20.7-.2 20.8-.3.5-10.5.5-10.5H727V707H251V474h-42l.2 121.2.3 121.3 3.4 6.5c4.6 8.8 13.8 17.8 22.6 22.1l7 3.4h493l7-3.4c8.9-4.4 19-14.2 23.1-22.6l2.9-6v-476l-3.4-6.8c-4.6-9.5-12.6-17.4-22.5-22.3l-8-3.9-33.3-.3-33.3-.3V171h-41v98h-38.5v-61.5l-79.2-.3-79.3-.2v-36h-41l.2 49z"/><path d="M65.6 340.7c-.9 1-.7 14.8.4 24.4 2.9 25.6 12.4 47 27.2 61.7 11.2 11 22.5 17.3 39.8 22l9.5 2.7 80.8.3 80.7.3V468c0 10.7.4 16 1.1 16 .6 0 13-10.7 27.7-23.7 41.9-37.3 45.7-40.7 45.7-41.6 0-1-72.6-64.7-73.7-64.7-.4 0-.8 7.2-.8 16.1v16l-80.2-.4c-88.1-.4-87-.4-106-6.7-20.7-6.9-38.5-19.3-47.6-33-2.2-3.2-4.3-5.6-4.6-5.3zM397 416.5V452h71v-71h-71v35.5zM503.5 382.3c-.3.6-.4 16.7-.3 35.7l.3 34.5 35.8.3 35.7.2v-72h-35.5c-27.6 0-35.7.3-36 1.3zM609.7 381.7c-.4.3-.7 16.3-.7 35.5V452h72l-.2-35.3-.3-35.2-35.1-.3c-19.3-.1-35.3.1-35.7.5zM397 524v36h71l.2-35.6c.2-19.6.1-35.8-.1-36-.2-.2-16.3-.4-35.8-.4H397v36zM504 523.5V559h71v-71h-71v35.5zM609 523.5V559h72v-71h-72v35.5zM504 630v36l35.3-.2 35.2-.3.3-35.8.2-35.7h-71v36zM609 630v36h72v-72h-72v36zM397 630.5V666h71v-71h-71v35.5z"/></svg>